<svg xmlns="http://www.w3.org/2000/svg" viewBox="0 0 250 34" width="250" height="34" xmlns:xlink="http://www.w3.org/1999/xlink">
  <defs>
    <polygon id="amazon-alexa-a" points="0.01,0.992 13.857,0.992 13.857,19.692 0.01,19.692"/>
  </defs>
  <g fill="none" fill-rule="evenodd">
    <path fill="#31c4f3" d="M 14.7138 33.8589 L 14.7138 30.4589 C 14.7138 29.3256 13.9925 28.1922 12.8385 27.7658 C 8.51092 25.9242 5.62586 21.8172 5.62586 17.0006 C 5.62586 10.6256 10.9632 5.38248 17.4546 5.38248 C 23.946 5.38248 29.2833 10.6256 29.2833 17.0006 C 29.2833 24.5075 23.369 31.5908 14.7138 33.8589 M 17.4546 0.000566667 C 7.78966 0.000566667 0.144253 7.65057 0.144253 17.0006 C 0.144253 26.3491 7.93391 34.0006 17.4546 34.0006 C 26.9753 34.0006 34.7649 26.3491 34.7649 17.0006 C 34.7649 7.65057 26.9753 0.000566667 17.4546 0.000566667"/>
    <path fill="#343e48" d="M 53.0852 19.4086 C 49.7674 19.4086 48.0364 20.6822 48.0364 23.2336 C 48.0364 25.5003 49.1904 26.6336 51.6427 26.6336 C 52.5082 26.6336 53.518 26.4919 54.672 26.0669 C 55.6818 25.6405 56.8358 25.2169 57.8455 24.5086 L 57.8455 20.1169 C 56.2588 19.5503 54.672 19.4086 53.0852 19.4086 M 53.6622 9.63362 C 57.8455 9.63362 59.8651 11.3336 59.8651 14.8753 L 59.8651 27.4836 C 59.8651 27.7655 59.7208 28.0503 59.2881 28.0503 L 58.5668 28.0503 C 58.2783 28.0503 57.9898 27.9086 57.9898 27.4836 L 57.8455 25.9253 C 55.826 27.6253 53.6622 28.3336 51.3542 28.3336 C 49.6231 28.3336 48.3249 27.9086 47.4593 26.917 C 46.4496 25.9253 46.0168 24.792 46.0168 23.2336 C 46.0168 21.5336 46.5938 20.1169 47.7478 19.1253 C 48.9019 18.1336 50.6329 17.5669 52.6524 17.5669 C 53.3737 17.5669 54.2392 17.5669 55.249 17.8489 C 56.1145 17.9919 56.98 18.1336 57.8455 18.417 L 57.8455 15.4419 C 57.8455 14.0253 57.557 13.0336 56.8358 12.3253 C 56.1145 11.7586 54.9605 11.3336 53.3737 11.3336 C 51.9312 11.3336 50.3444 11.617 48.6134 12.042 C 48.3249 12.042 48.1806 12.1836 48.0364 12.1836 C 47.8921 12.1836 47.7478 12.3253 47.6036 12.3253 C 47.3151 12.3253 47.1708 12.1836 47.1708 11.9003 L 47.1708 11.3336 C 47.1708 10.9086 47.3151 10.7669 47.6036 10.6253 C 48.4691 10.2003 49.4789 10.0586 50.4887 9.77528 C 51.6427 9.63362 52.6524 9.63362 53.6622 9.63362 M 85.6865 9.63305 C 87.4175 9.63305 88.5716 10.0581 89.4371 11.0497 C 90.3026 11.8997 90.7353 13.3164 90.7353 15.0164 L 90.7353 27.4845 C 90.7353 27.7664 90.5911 28.0497 90.1583 28.0497 L 89.1486 28.0497 C 88.8601 28.0497 88.5716 27.9081 88.5716 27.4845 L 88.5716 15.8664 C 88.5716 14.3081 88.2831 13.1747 87.706 12.4664 C 87.129 11.758 86.2635 11.4747 85.1095 11.4747 C 82.8014 11.4747 80.6376 12.1831 78.6181 13.7414 C 78.6181 14.3081 78.7624 14.8747 78.7624 15.4414 L 78.7624 27.4845 C 78.7624 27.7664 78.6181 28.0497 78.1853 28.0497 L 77.1756 28.0497 C 76.8871 28.0497 76.5986 27.9081 76.5986 27.4845 L 76.5986 15.8664 C 76.5986 14.3081 76.3101 13.1747 75.733 12.4664 C 75.156 11.758 74.2905 11.4747 73.1365 11.4747 C 70.8285 11.4747 68.8089 12.1831 66.6451 13.5997 L 66.6451 27.4845 C 66.6451 27.7664 66.5009 28.0497 66.0681 28.0497 L 65.0583 28.0497 C 64.6256 28.0497 64.4813 27.9081 64.4813 27.4845 L 64.4813 10.6247 C 64.4813 10.1997 64.6256 10.0581 65.0583 10.0581 L 65.7796 10.0581 C 66.2124 10.0581 66.3566 10.1997 66.3566 10.6247 L 66.5009 12.0414 C 67.6549 11.1914 68.6647 10.6247 69.9629 10.1997 C 71.117 9.77472 72.271 9.49138 73.425 9.49138 C 75.733 9.49138 77.1756 10.3414 78.0411 12.1831 C 79.1951 11.333 80.3491 10.6247 81.6474 10.1997 C 83.0899 9.77472 84.3882 9.63305 85.6865 9.63305 M 101.554 19.4086 C 98.2365 19.4086 96.5055 20.6822 96.5055 23.2336 C 96.5055 25.5003 97.6595 26.6336 100.112 26.6336 C 100.977 26.6336 101.987 26.4919 103.141 26.0669 C 104.151 25.6405 105.305 25.2169 106.315 24.5086 L 106.315 20.1169 C 104.584 19.5503 103.141 19.4086 101.554 19.4086 M 102.131 9.63362 C 106.315 9.63362 108.334 11.3336 108.334 14.8753 L 108.334 27.4836 C 108.334 27.7655 108.19 28.0503 107.757 28.0503 L 107.036 28.0503 C 106.603 28.0503 106.459 27.9086 106.459 27.4836 L 106.315 25.9253 C 104.295 27.6253 102.131 28.3336 99.8233 28.3336 C 98.0922 28.3336 96.794 27.9086 95.9285 26.917 C 94.9187 25.9253 94.4859 24.792 94.4859 23.2336 C 94.4859 21.5336 95.0629 20.1169 96.217 19.1253 C 97.371 18.1336 99.102 17.5669 101.122 17.5669 C 101.843 17.5669 102.708 17.5669 103.718 17.8489 C 104.584 17.9919 105.449 18.1336 106.315 18.417 L 106.315 15.4419 C 106.315 14.0253 106.026 13.0336 105.305 12.3253 C 104.584 11.7586 103.43 11.3336 101.843 11.3336 C 100.4 11.3336 98.8135 11.617 97.0825 12.042 C 96.794 12.042 96.6497 12.1836 96.5055 12.1836 C 96.3612 12.1836 96.217 12.3253 96.0727 12.3253 C 95.7842 12.3253 95.6399 12.1836 95.6399 11.9003 L 95.6399 11.3336 C 95.6399 10.9086 95.7842 10.7669 96.0727 10.6253 C 96.9382 10.2003 97.948 10.0586 98.9578 9.77528 C 100.112 9.63362 101.122 9.63362 102.131 9.63362 M 125.644 26.7756 L 125.644 27.4839 C 125.644 27.9089 125.5 28.0492 125.067 28.0492 L 112.373 28.0492 C 111.94 28.0492 111.796 27.9089 111.796 27.4839 L 111.796 26.7756 C 111.796 26.4922 111.796 26.3491 111.94 26.2089 C 111.94 26.0672 112.084 25.9242 112.229 25.7839 L 123.192 12.0422 L 112.661 12.0422 C 112.373 12.0422 112.084 11.9006 112.084 11.4756 L 112.084 10.6256 C 112.084 10.2006 112.229 10.0589 112.661 10.0589 L 125.067 10.0589 C 125.5 10.0589 125.644 10.2006 125.644 10.6256 L 125.644 11.3339 C 125.644 11.4756 125.644 11.7575 125.5 11.9006 C 125.5 12.0422 125.356 12.1839 125.067 12.4658 L 114.104 26.2089 L 125.067 26.2089 C 125.5 26.2089 125.644 26.3491 125.644 26.7756 M 136.175 26.6331 C 140.357 26.6331 142.378 24.083 142.378 18.9845 C 142.378 13.883 140.357 11.333 136.175 11.333 C 131.992 11.333 129.972 13.883 129.972 18.9845 C 129.972 24.083 132.136 26.6331 136.175 26.6331 M 136.175 28.4747 C 133.578 28.4747 131.559 27.6247 129.972 26.0678 C 128.53 24.3664 127.808 22.0997 127.808 19.1247 C 127.808 16.1497 128.53 13.7414 129.972 12.1831 C 131.415 10.4831 133.578 9.77472 136.175 9.77472 C 138.914 9.63305 140.935 10.3414 142.378 12.0414 C 143.82 13.7414 144.542 16.0081 144.542 18.9845 C 144.542 21.958 143.82 24.3664 142.378 25.9247 C 140.935 27.6247 138.914 28.4747 136.175 28.4747 M 158.102 9.63305 C 159.831 9.63305 161.274 10.0581 162.141 11.0497 C 163.005 11.8997 163.583 13.3164 163.583 15.0164 L 163.583 27.4845 C 163.583 27.7664 163.438 28.0497 163.005 28.0497 L 161.995 28.0497 C 161.562 28.0497 161.42 27.9081 161.42 27.4845 L 161.42 15.8664 C 161.42 14.3081 161.131 13.1747 160.553 12.4664 C 159.977 11.758 158.967 11.4747 157.668 11.4747 C 156.371 11.4747 155.217 11.6164 154.061 12.0414 C 152.907 12.4664 151.755 13.033 150.601 13.7414 L 150.601 27.4845 C 150.601 27.7664 150.455 28.0497 150.022 28.0497 L 149.012 28.0497 C 148.725 28.0497 148.437 27.9081 148.437 27.4845 L 148.437 10.6247 C 148.437 10.1997 148.58 10.0581 149.012 10.0581 L 149.734 10.0581 C 150.168 10.0581 150.312 10.1997 150.312 10.6247 L 150.455 12.1831 C 151.61 11.333 152.907 10.7664 154.207 10.1997 C 155.649 9.77472 156.946 9.63305 158.102 9.63305 M 183.201 19.4086 C 179.883 19.4086 178.152 20.6822 178.152 23.2336 C 178.152 25.5003 179.306 26.6336 181.758 26.6336 C 182.625 26.6336 183.634 26.4919 184.789 26.0669 C 185.797 25.6405 186.953 25.2169 187.961 24.5086 L 187.961 20.1169 C 186.232 19.5503 184.643 19.4086 183.201 19.4086 M 183.634 9.63362 C 187.817 9.63362 189.838 11.3336 189.838 14.8753 L 189.838 27.4836 C 189.838 27.7655 189.692 28.0503 189.259 28.0503 L 188.538 28.0503 C 188.25 28.0503 187.961 27.9086 187.961 27.4836 L 187.817 25.9253 C 185.797 27.6253 183.634 28.3336 181.326 28.3336 C 179.595 28.3336 178.298 27.9086 177.431 26.917 C 176.421 25.9253 175.988 24.792 175.988 23.2336 C 175.988 21.5336 176.565 20.1169 177.719 19.1253 C 178.873 18.1336 180.604 17.5669 182.625 17.5669 C 183.347 17.5669 184.211 17.5669 185.22 17.8489 C 186.086 17.9919 186.953 18.1336 187.817 18.417 L 187.817 15.4419 C 187.817 14.0253 187.528 13.0336 186.807 12.3253 C 186.086 11.7586 184.932 11.3336 183.347 11.3336 C 181.904 11.3336 180.316 11.617 178.585 12.042 C 178.298 12.042 178.152 12.1836 178.008 12.1836 C 177.864 12.1836 177.719 12.3253 177.576 12.3253 C 177.286 12.3253 177.142 12.1836 177.142 11.9003 L 177.142 11.3336 C 177.142 10.9086 177.286 10.7669 177.576 10.6253 C 178.441 10.2003 179.45 10.0586 180.462 9.77528 C 181.614 9.63362 182.625 9.63362 183.634 9.63362 M 194.741 2.26681 C 194.741 1.98347 194.887 1.70014 195.318 1.70014 L 196.329 1.70014 C 196.616 1.70014 196.905 1.84181 196.905 2.26681 L 196.905 24.9335 C 196.905 25.5001 197.051 25.7835 197.193 26.0668 C 197.338 26.3501 197.772 26.3501 198.347 26.3501 L 198.78 26.3501 L 199.214 26.3501 C 199.501 26.3501 199.79 26.4918 199.79 26.9168 L 199.79 27.6251 C 199.79 27.9085 199.646 28.0501 199.357 28.1918 C 199.214 28.1918 199.069 28.3335 198.78 28.3335 L 198.059 28.3335 C 197.051 28.3335 196.329 28.0501 195.751 27.4835 C 195.174 26.9168 194.887 26.2085 194.887 25.2168 L 194.887 2.26681 L 194.741 2.26681 Z M 210.033 11.3333 C 208.156 11.3333 206.859 11.9 205.705 12.8917 C 204.695 13.8833 203.974 15.4417 203.828 17.425 C 204.838 17.7083 205.705 17.85 206.571 17.9917 C 207.435 18.1333 208.445 18.1333 209.311 18.1333 C 211.187 18.1333 212.484 17.85 213.351 17.2833 C 214.215 16.7167 214.647 15.8667 214.647 14.7333 C 214.793 12.6083 213.205 11.3333 210.033 11.3333 M 214.647 26.0667 C 214.936 25.925 215.226 25.925 215.369 25.7833 C 215.514 25.7833 215.657 25.6417 215.803 25.6417 C 216.09 25.6417 216.236 25.7833 216.236 26.0667 L 216.236 26.6333 C 216.236 27.0583 216.09 27.2 215.803 27.3417 C 214.072 28.05 212.197 28.475 210.32 28.475 C 207.58 28.475 205.417 27.625 203.974 26.0667 C 202.532 24.5083 201.81 22.2417 201.81 19.125 C 201.81 17.5667 201.953 16.2917 202.386 15.1583 C 202.82 14.025 203.396 12.8917 204.117 12.0417 C 204.838 11.1917 205.705 10.625 206.859 10.0583 C 207.869 9.63333 209.166 9.35 210.466 9.35 C 212.629 9.35 214.215 9.775 215.369 10.7667 C 216.524 11.7583 217.1 13.0333 217.1 14.7333 C 217.1 16.4333 216.524 17.7083 215.226 18.4167 C 214.072 19.2667 212.197 19.55 209.599 19.55 C 208.734 19.55 207.723 19.55 206.859 19.4083 C 205.992 19.2667 204.984 19.125 204.117 18.8417 C 204.117 21.3917 204.695 23.2333 205.705 24.5083 C 206.859 25.7833 208.445 26.35 210.608 26.35 C 211.762 26.6333 213.205 26.4917 214.647 26.0667 M 226.622 20.1169 L 221.427 27.6253 C 221.284 27.9086 220.996 28.0503 220.706 28.0503 L 219.696 28.0503 C 219.409 28.0503 219.264 27.9086 219.264 27.6253 C 219.264 27.4836 219.409 27.3419 219.553 27.2003 L 225.755 18.7003 L 220.13 10.9086 C 219.985 10.6253 219.985 10.6253 219.985 10.4836 C 219.985 10.2003 220.13 10.0586 220.418 10.0586 L 221.573 10.0586 C 221.86 10.0586 222.149 10.2003 222.294 10.4836 L 227.055 17.142 L 231.815 10.4836 C 231.958 10.2003 232.246 10.0586 232.536 10.0586 L 233.546 10.0586 C 233.834 10.0586 233.979 10.2003 233.979 10.4836 C 233.979 10.6253 233.834 10.7669 233.689 10.9086 L 228.064 18.417 L 234.267 27.0572 C 234.41 27.2003 234.41 27.4836 234.41 27.4836 C 234.41 27.7655 234.267 27.9086 233.979 27.9086 L 232.825 27.9086 C 232.536 27.9086 232.246 27.7655 232.103 27.4836 L 226.622 20.1169 Z"/>
    <g transform="translate(236.132 8.642)">
      <mask id="amazon-alexa-b" fill="#fff">
        <use xlink:href="#amazon-alexa-a"/>
      </mask>
      <path fill="#343e48" mask="url(&quot;#amazon-alexa-b&quot;)" d="M 7.22241 10.7669 C 3.9046 10.7669 2.17356 12.0405 2.17356 14.592 C 2.17356 16.8586 3.32759 17.9919 5.77989 17.9919 C 6.6454 17.9919 7.65517 17.8503 8.8092 17.4253 C 9.81897 16.9989 10.973 16.5753 11.9828 15.867 L 11.9828 11.4753 C 10.2517 10.9086 8.66494 10.7669 7.22241 10.7669 M 7.65517 0.99195 C 11.8385 0.99195 13.858 2.69195 13.858 6.23362 L 13.858 18.8419 C 13.858 19.1239 13.7138 19.4086 13.281 19.4086 L 12.5598 19.4086 C 12.127 19.4086 11.9828 19.267 11.9828 18.8419 L 11.8385 17.2836 C 9.81897 18.9836 7.65517 19.6919 5.34713 19.6919 C 3.61609 19.6919 2.31782 19.267 1.4523 18.2753 C 0.442529 17.2836 0.00977011 16.1503 0.00977011 14.592 C 0.00977011 12.8919 0.586782 11.4753 1.7408 10.4836 C 2.89483 9.49195 4.62586 8.92528 6.6454 8.92528 C 7.36667 8.92528 8.23218 8.92528 9.24195 9.2072 C 10.1075 9.35028 10.973 9.49195 11.8385 9.77528 L 11.8385 6.80028 C 11.8385 5.38362 11.55 4.39195 10.8287 3.68362 C 10.1075 3.11695 8.95345 2.69195 7.36667 2.69195 C 5.92414 2.69195 4.33736 2.97528 2.60632 3.40028 C 2.31782 3.40028 2.17356 3.54195 2.02931 3.54195 C 1.88506 3.54195 1.7408 3.68362 1.59655 3.68362 C 1.30805 3.68362 1.16379 3.54195 1.16379 3.25862 L 1.16379 2.69195 C 1.16379 2.26695 1.30805 2.12528 1.59655 1.98362 C 2.46207 1.55862 3.47184 1.41695 4.48161 1.13362 C 5.63563 0.99195 6.6454 0.99195 7.65517 0.99195"/>
    </g>
  </g>
</svg>