<svg xmlns="http://www.w3.org/2000/svg" viewBox="0 0 226 29" width="226" height="29" xmlns:xlink="http://www.w3.org/1999/xlink">
  <defs>
    <polygon id="ibm-watson-a" points="0,0 225.65,0 225.65,28.7 0,28.7"/>
  </defs>
  <g fill="none" fill-rule="evenodd">
    <mask id="ibm-watson-b" fill="#fff">
      <use xlink:href="#ibm-watson-a"/>
    </mask>
    <path fill="#000" mask="url(&quot;#ibm-watson-b&quot;)" d="M 222.483 5.19943 C 222.758 5.19943 222.92 5.08421 222.92 4.83771 L 222.92 4.6402 C 222.92 4.3933 222.758 4.27809 222.483 4.27809 L 221.966 4.27809 L 221.966 5.19943 L 222.483 5.19943 Z M 221.966 6.99233 L 221.045 6.99233 L 221.045 3.55426 L 222.645 3.55426 C 223.469 3.55426 223.857 4.03159 223.857 4.67311 C 223.857 5.21589 223.614 5.56114 223.243 5.7422 L 223.97 6.99233 L 222.968 6.99233 L 222.402 5.90679 L 221.966 5.90679 L 221.966 6.99233 Z M 224.827 5.51176 L 224.827 5.01837 C 224.827 3.58718 223.744 2.61686 222.402 2.61686 C 221.061 2.61686 219.978 3.58718 219.978 5.01837 L 219.978 5.51176 C 219.978 6.94334 221.061 7.91367 222.402 7.91367 C 223.744 7.91367 224.827 6.94334 224.827 5.51176 Z M 219.154 5.26526 C 219.154 3.32383 220.592 1.87657 222.402 1.87657 C 224.196 1.87657 225.651 3.32383 225.651 5.26526 C 225.651 7.2063 224.196 8.65395 222.402 8.65395 C 220.592 8.65395 219.154 7.2063 219.154 5.26526 Z M 199.598 28.2152 L 199.598 6.99311 L 205.476 6.99311 L 205.476 10.5907 L 205.714 10.5907 C 206.468 8.36748 208.216 6.50795 211.512 6.50795 C 215.761 6.50795 218.025 9.58039 218.025 14.916 L 218.025 28.2152 L 212.147 28.2152 L 212.147 15.4012 C 212.147 12.6928 211.393 11.3588 209.248 11.3588 C 207.342 11.3588 205.476 12.3695 205.476 14.4716 L 205.476 28.2152 L 199.598 28.2152 Z M 189.313 19.7668 L 189.313 15.4415 C 189.313 12.7735 187.962 11.2377 185.658 11.2377 C 183.355 11.2377 182.005 12.7735 182.005 15.4415 L 182.005 19.7668 C 182.005 22.4348 183.355 23.971 185.658 23.971 C 187.962 23.971 189.313 22.4348 189.313 19.7668 Z M 175.889 17.584 C 175.889 10.7525 179.543 6.50795 185.658 6.50795 C 191.775 6.50795 195.428 10.7525 195.428 17.584 C 195.428 24.4155 191.775 28.7004 185.658 28.7004 C 179.543 28.7004 175.889 24.4155 175.889 17.584 Z M 155.477 24.9006 L 158.932 21.3434 C 160.401 23.0007 162.188 24.0518 164.452 24.0518 C 166.755 24.0518 167.549 23.2837 167.549 22.0308 C 167.549 20.9797 166.914 20.4542 165.445 20.252 L 163.181 19.969 C 158.455 19.3628 156.152 17.2607 156.152 13.4205 C 156.152 9.3378 159.289 6.50795 164.253 6.50795 C 168.622 6.50795 170.647 7.72086 172.752 9.82257 L 169.376 13.3394 C 168.066 12.0058 166.319 11.1566 164.571 11.1566 C 162.585 11.1566 161.791 11.8843 161.791 12.9354 C 161.791 14.0672 162.268 14.6734 163.976 14.916 L 166.319 15.2397 C 170.846 15.846 173.189 17.9477 173.189 21.6264 C 173.189 25.7091 169.615 28.7004 164.253 28.7004 C 160.242 28.7004 157.621 27.326 155.477 24.9006 Z M 149.282 28.2152 C 145.231 28.2152 143.087 26.0732 143.087 22.0308 L 143.087 11.6417 L 140.147 11.6417 L 140.147 6.99311 L 141.617 6.99311 C 143.205 6.99311 143.682 6.18464 143.682 4.72955 L 143.682 1.25307 L 148.964 1.25307 L 148.964 6.99311 L 153.094 6.99311 L 153.094 11.6417 L 148.964 11.6417 L 148.964 23.5666 L 152.776 23.5666 L 152.776 28.2152 L 149.282 28.2152 Z M 130.458 21.7882 L 130.458 19.2821 L 127.598 19.2821 C 125.335 19.2821 124.143 20.1309 124.143 21.6671 L 124.143 22.273 C 124.143 23.8092 125.136 24.5369 126.884 24.5369 C 128.83 24.5369 130.458 23.7285 130.458 21.7882 Z M 135.025 28.2152 C 132.92 28.2152 131.411 26.7601 131.054 24.4966 L 130.815 24.4966 C 130.18 27.2453 127.876 28.7004 124.699 28.7004 C 120.53 28.7004 118.226 26.1943 118.226 22.516 C 118.226 18.0288 121.642 15.8863 127.161 15.8863 L 130.458 15.8863 L 130.458 14.5523 C 130.458 12.4906 129.465 11.1973 127.002 11.1973 C 124.659 11.1973 123.428 12.4098 122.515 13.7035 L 119.02 10.5503 C 120.688 8.04417 123.071 6.50795 127.439 6.50795 C 133.317 6.50795 136.335 9.25707 136.335 14.2694 L 136.335 23.5666 L 138.281 23.5666 L 138.281 28.2152 L 135.025 28.2152 Z M 86.8526 28.2152 L 80.5777 -0.000195946 L 86.535 -0.000195946 L 89.1561 13.5416 L 90.6253 21.3838 L 90.7447 21.3838 L 92.4922 13.5416 L 95.5499 -0.000195946 L 102.142 -0.000195946 L 105.24 13.5416 L 106.948 21.3838 L 107.067 21.3838 L 108.536 13.5416 L 111.197 -0.000195946 L 116.916 -0.000195946 L 110.482 28.2152 L 103.612 28.2152 L 100.117 12.9354 L 98.7667 6.75053 L 98.6473 6.75053 L 97.2579 12.9354 L 93.7627 28.2152 L 86.8526 28.2152 Z M 64.6931 4.4466 L 64.4944 4.4466 L 62.1512 9.17595 L 55.5191 21.4645 L 48.927 9.17595 L 46.5838 4.48697 L 46.3851 4.48697 L 46.3851 28.2152 L 43.1287 28.2152 L 43.1287 -0.000195946 L 47.497 -0.000195946 L 55.4398 15.1993 L 55.5988 15.1993 L 63.5812 -0.000195946 L 67.9498 -0.000195946 L 67.9498 28.2152 L 64.6931 28.2152 L 64.6931 4.4466 Z M 20.5314 25.2243 L 28.7521 25.2243 C 31.6116 25.2243 33.3591 23.6881 33.3591 20.8582 L 33.3591 19.4839 C 33.3591 16.654 31.6116 15.1182 28.7521 15.1182 L 20.5314 15.1182 L 20.5314 25.2243 Z M 20.5314 12.2076 L 28.1966 12.2076 C 30.8173 12.2076 32.4059 10.7929 32.4059 8.28675 L 32.4059 6.91238 C 32.4059 4.40624 30.8173 2.99111 28.1966 2.99111 L 20.5314 2.99111 L 20.5314 12.2076 Z M 17.1957 -0.000195946 L 28.5935 -0.000195946 C 33.1605 -0.000195946 35.9799 2.87002 35.9799 7.27606 C 35.9799 11.4799 33.3195 12.9757 31.4926 13.2587 L 31.4926 13.5013 C 33.4781 13.6228 36.9332 15.3608 36.9332 20.0502 C 36.9332 24.6984 33.8754 28.2152 29.7851 28.2152 L 17.1957 28.2152 L 17.1957 -0.000195946 Z M 7.70017e-005 28.2152 L 7.70017e-005 25.3858 L 3.89213 25.3858 L 3.89213 2.82966 L 7.70017e-005 2.82966 L 7.70017e-005 -0.000195946 L 11.1199 -0.000195946 L 11.1199 2.82966 L 7.22784 2.82966 L 7.22784 25.3858 L 11.1199 25.3858 L 11.1199 28.2152 L 7.70017e-005 28.2152 Z"/>
  </g>
</svg>